# xmcd CD database file
#
# Track frame offsets:
#	182
#	845
#	22360
#	24325
#	53220
#	55130
#	91672
#	93580
#	146745
#	170630
#	172430
#	210602
#	212165
#	215580
#	257795
#	259347
#	274452
#	276290
#	299940
#	301770
#	335257
#
# Disc length: 4479 seconds
#
# Revision: 9
# Processed by: cddbd v1.5.2PL0 Copyright (c) Steve Scherf et al.
# Submitted via: CDex 1.51
#
DISCID=50117d15
DTITLE=Henri Texier ''Azur'' Quartet - ''An Indian's Week''
DYEAR=1993
DGENRE=Jazz
TTITLE0=Lundi
TTITLE1=Laguna Veneta
TTITLE2=Mardi
TTITLE3=Stanislas
TTITLE4=Mercredi
TTITLE5=Cyclosis
TTITLE6=Jeudi
TTITLE7=Indians - Desaparecido
TTITLE8=Simonge Signoret
TTITLE9=Vendredi
TTITLE10=Amazone Blues
TTITLE11=Samedi
TTITLE12=Tzigane
TTITLE13=Mâshala
TTITLE14=Samedi soir
TTITLE15=The Bridge
TTITLE16=Dimanche
TTITLE17=Don't buy ivory, anymore !
TTITLE18=Dimanche soir
TTITLE19=Laguna Laïta
TTITLE20=Lundi
EXTD=Henri Texier: contrebasse, percussions\nGlenn Ferris: Trombone\nTony Rabeson: Batterie\nBojan Zulfikarpasic: Piano, Piano"Fender-Rhodes"\n\navec la participation de \nMichel Portal:Bandonéon\nLouis Sclavis: Clarinettes, soprano sax YEAR: 1993
EXTT0=
EXTT1=
EXTT2=
EXTT3=
EXTT4=
EXTT5=
EXTT6=
EXTT7=
EXTT8=
EXTT9=
EXTT10=
EXTT11=
EXTT12=
EXTT13=
EXTT14=
EXTT15=
EXTT16=
EXTT17=
EXTT18=
EXTT19=
EXTT20=
PLAYORDER=
